<svg width="230" height="210" viewBox="0 0 230 210" fill="none" xmlns="http://www.w3.org/2000/svg">
<g clip-path="url(#clip0_9_617)">
<path opacity="0.15" d="M33.9542 96.779L0.689453 91.8907L1.07149 112.023L39.8595 117.721L33.9541 96.7738L33.9542 96.779ZM45.3847 124.934L24.347 141.159L35.0249 146.902L56.0626 130.677L45.3847 124.934ZM144.958 0.0977783L66.9156 43.5155L99.5483 67.9419L177.591 24.5242L144.958 0.0977783ZM202.379 77.5285L189.174 91.1205L197.295 94.09L210.5 80.498L202.379 77.5285ZM211.082 121.577L110.415 91.0351L113.293 113.729L85.5252 112.915L38.8983 209.456L130.192 207.723L157.52 151.136L217.12 169.22L211.077 121.582L211.082 121.577ZM311.695 181.047L301.284 190.979L311.967 195.35L311.695 181.047Z" fill="#83ACCE"/>
</g>
<defs>
<clipPath id="clip0_9_617">
<rect width="312" height="210" fill="white"/>
</clipPath>
</defs>
</svg>
