<svg width="445" height="301" viewBox="0 0 445 301" fill="none" xmlns="http://www.w3.org/2000/svg">
<path d="M161.624 184.606L178.207 100.926L189.964 101.164L206.88 160.68L246.833 102.319L258.71 102.56L242.128 186.241L232.05 186.036L245.025 120.406L207.919 174.504L200.361 174.351L184.548 119.658L171.702 184.811L161.624 184.606ZM255.226 186.507L302.762 103.455L313.44 103.672L327.691 187.979L316.893 187.759L305.505 116.113L265.784 186.721L255.226 186.507ZM273.661 165.277L278.145 157.206L316.178 157.979L317.452 166.166L273.661 165.277ZM335.974 188.147L370.067 146.47L352.556 104.466L363.954 104.698L378.031 138.47L404.266 105.516L415.543 105.745L382.057 147.074L399.081 189.428L387.683 189.197L374.573 155.084L347.371 188.378L335.974 188.147Z" fill="white"/>
<path fill-rule="evenodd" clip-rule="evenodd" d="M54.1091 201.975L87.3867 64.7195L103.339 61.5112L70.0612 198.767L54.1091 201.975Z" fill="white"/>
<path fill-rule="evenodd" clip-rule="evenodd" d="M122.175 192.856L155.452 55.5998L171.404 52.3915L138.127 189.647L122.175 192.856Z" fill="white" fill-opacity="0.25"/>
<path fill-rule="evenodd" clip-rule="evenodd" d="M27.8034 207.266L61.0811 70.01L77.0332 66.8018L43.7556 204.058L27.8034 207.266Z" fill="white"/>
<path fill-rule="evenodd" clip-rule="evenodd" d="M135.927 117.51L91.7878 128.548L88.0419 141.645L132.181 130.608L135.927 117.51Z" fill="white" fill-opacity="0.3"/>
<path d="M289.146 201.832L288.803 218.677L284.699 218.593L284.841 211.659L278.458 211.529L278.317 218.463L274.214 218.38L274.557 201.535L278.66 201.619L278.526 208.217L284.908 208.347L285.043 201.749L289.146 201.832ZM306.926 219.215C305.342 219.182 303.894 218.785 302.581 218.022C301.285 217.259 300.258 216.214 299.501 214.886C298.76 213.543 298.406 212.047 298.44 210.4C298.474 208.752 298.888 207.28 299.682 205.984C300.493 204.688 301.561 203.686 302.888 202.977C304.231 202.268 305.694 201.93 307.278 201.962C308.861 201.994 310.302 202.392 311.598 203.154C312.911 203.917 313.93 204.962 314.655 206.289C315.396 207.617 315.75 209.104 315.716 210.752C315.683 212.4 315.269 213.879 314.474 215.192C313.679 216.488 312.618 217.49 311.292 218.199C309.965 218.908 308.51 219.247 306.926 219.215ZM307.002 215.471C308.346 215.499 309.427 215.073 310.245 214.193C311.079 213.314 311.511 212.139 311.541 210.667C311.572 209.179 311.188 207.987 310.39 207.091C309.608 206.178 308.546 205.709 307.202 205.681C305.842 205.654 304.745 206.071 303.912 206.935C303.094 207.798 302.67 208.982 302.639 210.485C302.609 211.973 302.984 213.173 303.766 214.085C304.564 214.981 305.643 215.444 307.002 215.471ZM337.486 202.818L337.419 206.105L332.956 206.014L332.679 219.572L328.576 219.488L328.853 205.931L324.389 205.84L324.457 202.552L337.486 202.818ZM350.78 206.378L350.71 209.785L356.205 209.897L356.141 213.064L350.646 212.952L350.57 216.648L356.785 216.774L356.718 220.062L346.4 219.851L346.744 203.007L357.061 203.217L356.994 206.504L350.78 206.378ZM370.748 217.179L376.123 217.289L376.058 220.456L366.58 220.263L366.924 203.418L371.027 203.502L370.748 217.179ZM391.305 220.935C390.074 220.91 388.974 220.687 388.006 220.267C387.039 219.848 386.267 219.24 385.691 218.444C385.131 217.648 384.846 216.698 384.837 215.594L389.204 215.683C389.255 216.308 389.461 216.792 389.822 217.136C390.184 217.463 390.66 217.633 391.252 217.645C391.86 217.657 392.343 217.531 392.7 217.266C393.058 216.986 393.242 216.597 393.252 216.101C393.261 215.686 393.124 215.339 392.841 215.061C392.575 214.783 392.236 214.552 391.823 214.368C391.427 214.184 390.855 213.972 390.108 213.733C389.027 213.375 388.146 213.021 387.465 212.671C386.784 212.321 386.202 211.813 385.72 211.147C385.237 210.481 385.007 209.62 385.028 208.564C385.06 206.997 385.653 205.784 386.807 204.928C387.961 204.055 389.449 203.637 391.273 203.675C393.129 203.712 394.615 204.191 395.733 205.11C396.851 206.013 397.433 207.257 397.481 208.842L393.042 208.752C393.021 208.207 392.83 207.779 392.468 207.468C392.107 207.14 391.638 206.971 391.062 206.959C390.566 206.949 390.163 207.077 389.854 207.342C389.545 207.592 389.385 207.965 389.375 208.461C389.364 209.005 389.611 209.434 390.117 209.748C390.623 210.063 391.416 210.407 392.496 210.781C393.577 211.171 394.449 211.541 395.114 211.891C395.795 212.241 396.377 212.74 396.86 213.39C397.343 214.04 397.574 214.869 397.554 215.877C397.534 216.837 397.268 217.704 396.756 218.477C396.261 219.251 395.544 219.861 394.607 220.306C393.669 220.751 392.569 220.961 391.305 220.935Z" fill="white"/>
</svg>
