<svg width="106" height="78" viewBox="0 0 106 78" fill="none" xmlns="http://www.w3.org/2000/svg">
<line x1="82.0937" y1="67.7869" x2="104.924" y2="18.8274" stroke="#83ACCE" stroke-width="2"/>
<line x1="1.10971" y1="76.7541" x2="13.1097" y2="53.2946" stroke="#83ACCE" stroke-width="2"/>
<line x1="11.5887" y1="10.7977" x2="16.0887" y2="0.838248" stroke="#83ACCE" stroke-width="2"/>
<g clip-path="url(#clip0_9_559)">
<path d="M65.8958 42.0566C61.3411 51.8242 45.762 56.9439 40.6583 58.3889C40.2005 58.4857 39.7236 58.4311 39.2995 58.2334C38.8754 58.0356 38.527 57.7054 38.3069 57.2924C36.1333 52.454 30.0412 37.2288 34.5959 27.4612C36.5313 23.3106 40.0364 20.0988 44.3399 18.5325C48.6434 16.9661 53.3929 17.1735 57.5435 19.109C61.6941 21.0444 64.9059 24.5495 66.4723 28.853C68.0386 33.1565 67.8312 37.906 65.8958 42.0566Z" stroke="#FF6196" stroke-width="3" stroke-linecap="round" stroke-linejoin="round"/>
<path d="M47.5092 40.6277C50.7504 42.1391 54.6031 40.7368 56.1146 37.4956C57.626 34.2544 56.2237 30.4016 52.9825 28.8902C49.7412 27.3788 45.8885 28.7811 44.3771 32.0223C42.8657 35.2635 44.268 39.1163 47.5092 40.6277Z" stroke="#FF6196" stroke-width="3" stroke-linecap="round" stroke-linejoin="round"/>
</g>
<defs>
<clipPath id="clip0_9_559">
<rect width="51.8034" height="51.8034" fill="white" transform="translate(35.8931 4.25) rotate(25)"/>
</clipPath>
</defs>
</svg>
