<svg width="106" height="81" viewBox="0 0 106 81" fill="none" xmlns="http://www.w3.org/2000/svg">
<line x1="82.3203" y1="71.1425" x2="105.15" y2="22.183" stroke="#83ACCE" stroke-width="1.5"/>
<line x1="1.33228" y1="80.1179" x2="13.3323" y2="56.6585" stroke="#83ACCE" stroke-width="1.5"/>
<line x1="11.8165" y1="14.1507" x2="16.3165" y2="4.19119" stroke="#83ACCE" stroke-width="1.5"/>
<g clip-path="url(#clip0_9_581)">
<path d="M72.2886 24.116L68.6393 31.942M74.377 29.8536L66.551 26.2043M28.2122 36.9097L26.3875 40.8226M29.2563 39.7785L25.3434 37.9538M41.1964 39.3914C41.3374 38.6329 41.2726 37.8504 41.0087 37.1254C40.7449 36.4004 40.2915 35.7593 39.6959 35.2689L29.1361 26.5766C28.9584 26.423 28.8357 26.2156 28.7866 25.9859C28.7374 25.7563 28.7645 25.5168 28.8638 25.3039C28.9631 25.0911 29.1291 24.9164 29.3366 24.8064C29.5441 24.6964 29.7819 24.6571 30.0138 24.6945L43.4611 27.1945C44.2193 27.3356 45.0015 27.271 45.7263 27.0075C46.4511 26.744 47.0921 26.2911 47.5826 25.696L56.2749 15.1362C56.4283 14.9574 56.636 14.8338 56.8663 14.784C57.0965 14.7343 57.3367 14.7613 57.5502 14.8609C57.7637 14.9604 57.9388 15.1271 58.0487 15.3354C58.1586 15.5438 58.1974 15.7823 58.159 16.0148L55.6551 29.4602C55.5141 30.2188 55.5789 31.0012 55.8427 31.7262C56.1066 32.4513 56.56 33.0923 57.1556 33.5827L67.7163 42.2731C67.8961 42.4262 68.0208 42.6342 68.0711 42.865C68.1214 43.0959 68.0945 43.3368 67.9947 43.551C67.8948 43.7651 67.7275 43.9405 67.5183 44.0504C67.3092 44.1602 67.0698 44.1984 66.8368 44.1591L53.3913 41.6552C52.6328 41.5141 51.8503 41.5789 51.1253 41.8428C50.4003 42.1067 49.7592 42.56 49.2688 43.1557L40.5765 53.7154C40.4231 53.8942 40.2155 54.0179 39.9852 54.0676C39.755 54.1173 39.5148 54.0903 39.3013 53.9908C39.0878 53.8912 38.9127 53.7246 38.8028 53.5162C38.6929 53.3079 38.6541 53.0693 38.6924 52.8369L41.1964 39.3914Z" stroke="#FF6196" stroke-width="3" stroke-linecap="round" stroke-linejoin="round"/>
</g>
<defs>
<clipPath id="clip0_9_581">
<rect width="51.81" height="51.81" fill="white" transform="translate(35.896) rotate(25)"/>
</clipPath>
</defs>
</svg>
