<svg width="106" height="78" viewBox="0 0 106 78" fill="none" xmlns="http://www.w3.org/2000/svg">
<line x1="82.3203" y1="67.8925" x2="105.15" y2="18.933" stroke="#83ACCE" stroke-width="1.5"/>
<line x1="1.33228" y1="76.8679" x2="13.3323" y2="53.4085" stroke="#83ACCE" stroke-width="1.5"/>
<line x1="11.8165" y1="10.9007" x2="16.3165" y2="0.941186" stroke="#83ACCE" stroke-width="1.5"/>
<g clip-path="url(#clip0_9_570)">
<path d="M52.9368 32.35L49.2875 40.1759M45.6382 48.0019L45.6578 48.011M64.0271 49.4311C59.4655 59.2135 50.337 60.9116 40.8751 59.9532C40.3815 59.8989 39.9218 59.6761 39.5734 59.3224C32.7285 52.7007 28.1616 44.6163 32.7233 34.8338L39.1096 21.1384C39.3515 20.6195 39.7897 20.218 40.3277 20.0221C40.8657 19.8263 41.4595 19.8522 41.9784 20.0942C45.8914 21.9189 51.8774 21.8519 56.6684 20.4655C57.248 20.3046 57.866 20.3559 58.4112 20.6101C58.9564 20.8644 59.3929 21.3048 59.6423 21.8522C61.6703 26.4422 65.4563 31.0421 69.3693 32.8668C69.8882 33.1088 70.2897 33.5469 70.4855 34.0849C70.6813 34.623 70.6554 35.2167 70.4134 35.7356L64.0271 49.4311Z" stroke="#FF6196" stroke-width="3.6" stroke-linecap="round" stroke-linejoin="round"/>
</g>
<defs>
<clipPath id="clip0_9_570">
<rect width="51.81" height="51.81" fill="white" transform="translate(36.7573 5.75) rotate(25)"/>
</clipPath>
</defs>
</svg>
